<svg width="340" height="380" xmlns="http://www.w3.org/2000/svg"><path d="M 80 65 L 80 125 M 90 60 L 90 120 M 100 65 L 100 125 M 100 115 L 150 90 M 100 125 L 160 95 M 110 130 L 160 105 M 90 50 L 90 60 M 100 45 L 100 55 M 100 55 L 100 65 M 90 50 L 100 45 M 100 45 L 90 40 M 80 45 L 90 40 M 90 50 L 80 45 M 80 45 L 80 55 M 80 55 L 80 65 M 160 25 L 160 85 M 170 20 L 170 80 M 180 25 L 180 85 M 170 10 L 170 20 M 180 5 L 180 15 M 180 15 L 180 25 M 170 10 L 180 5 M 180 5 L 170 0 M 160 5 L 170 0 M 170 10 L 160 5 M 160 5 L 160 15 M 160 15 L 160 25 M 240 65 L 240 125 M 250 60 L 250 120 M 260 65 L 260 125 M 250 50 L 250 60 M 260 45 L 260 55 M 260 55 L 260 65 M 250 50 L 260 45 M 260 45 L 250 40 M 240 45 L 250 40 M 250 50 L 240 45 M 240 45 L 240 55 M 240 55 L 240 65 M 0 105 L 0 165 M 10 100 L 10 160 M 20 105 L 20 165 M 10 90 L 10 100 M 20 85 L 20 95 M 20 95 L 20 105 M 10 90 L 20 85 M 20 85 L 10 80 M 0 85 L 10 80 M 10 90 L 0 85 M 0 85 L 0 95 M 0 95 L 0 105 M 80 145 L 80 205 M 90 140 L 90 200 M 100 145 L 100 205 M 100 145 L 150 170 M 100 135 L 160 165 M 110 130 L 160 155 M 100 195 L 150 170 M 100 205 L 160 175 M 110 210 L 160 185 M 90 130 L 100 135 M 90 140 L 100 145 M 100 125 L 110 130 M 90 130 L 100 125 M 90 130 L 90 120 M 100 125 L 100 115 M 80 125 L 80 115 M 80 125 L 80 135 M 80 135 L 80 145 M 180 105 L 230 130 M 180 95 L 240 125 M 190 90 L 240 115 M 170 90 L 170 100 M 170 90 L 180 95 M 170 100 L 180 105 M 180 85 L 190 90 M 170 90 L 180 85 M 170 90 L 170 80 M 180 85 L 180 75 M 160 85 L 160 75 M 170 90 L 160 85 M 170 90 L 160 95 M 160 85 L 150 90 M 170 100 L 160 105 M 240 145 L 240 205 M 250 140 L 250 200 M 260 145 L 260 205 M 260 195 L 310 170 M 260 205 L 320 175 M 270 210 L 320 185 M 250 130 L 250 140 M 260 125 L 260 135 M 260 135 L 260 145 M 250 130 L 250 120 M 260 125 L 260 115 M 240 125 L 240 115 M 240 135 L 230 130 M 240 135 L 240 145 M 330 180 L 340 175 M 340 165 L 340 175 M 330 170 L 340 165 M 340 165 L 330 160 M 320 165 L 330 160 M 330 170 L 320 175 M 320 165 L 310 170 M 330 180 L 320 185 M 0 185 L 0 245 M 10 180 L 10 240 M 20 185 L 20 245 M 20 185 L 70 210 M 20 175 L 80 205 M 30 170 L 80 195 M 20 235 L 70 210 M 20 245 L 80 215 M 30 250 L 80 225 M 10 170 L 20 175 M 10 180 L 20 185 M 20 165 L 30 170 M 10 170 L 20 165 M 10 170 L 10 160 M 20 165 L 20 155 M 0 165 L 0 155 M 0 165 L 0 175 M 0 175 L 0 185 M 80 225 L 80 285 M 90 220 L 90 280 M 100 225 L 100 285 M 100 225 L 150 250 M 100 215 L 160 245 M 110 210 L 160 235 M 90 210 L 90 220 M 90 210 L 100 215 M 90 220 L 100 225 M 100 205 L 110 210 M 90 210 L 100 205 M 90 210 L 90 200 M 100 205 L 100 195 M 80 205 L 80 195 M 90 210 L 80 205 M 90 210 L 80 215 M 80 205 L 70 210 M 90 220 L 80 225 M 170 250 L 170 260 M 170 260 L 180 255 M 180 255 L 190 250 M 170 250 L 180 245 M 170 240 L 180 235 M 170 240 L 160 235 M 170 250 L 160 245 M 170 260 L 160 255 M 160 255 L 150 250 M 180 185 L 230 210 M 180 175 L 240 205 M 190 170 L 240 195 M 180 235 L 230 210 M 180 245 L 240 215 M 190 250 L 240 225 M 170 170 L 170 180 M 170 170 L 180 175 M 170 180 L 180 185 M 180 165 L 190 170 M 180 165 L 170 160 M 170 160 L 160 155 M 170 170 L 160 175 M 160 165 L 150 170 M 170 180 L 160 185 M 170 250 L 170 260 M 170 260 L 180 255 M 180 255 L 190 250 M 170 250 L 180 245 M 170 240 L 180 235 M 170 240 L 160 235 M 170 250 L 160 245 M 170 260 L 160 255 M 160 255 L 150 250 M 260 225 L 310 250 M 260 215 L 320 245 M 270 210 L 320 235 M 260 275 L 310 250 M 260 285 L 320 255 M 270 290 L 320 265 M 250 210 L 250 220 M 250 210 L 260 215 M 250 220 L 260 225 M 260 205 L 270 210 M 250 210 L 260 205 M 250 210 L 250 200 M 260 205 L 260 195 M 240 205 L 240 195 M 250 210 L 240 205 M 250 210 L 240 215 M 240 205 L 230 210 M 250 220 L 240 225 M 330 260 L 340 255 M 340 245 L 340 255 M 330 250 L 340 245 M 340 245 L 330 240 M 330 240 L 320 235 M 330 250 L 320 255 M 320 245 L 310 250 M 330 260 L 320 265 M 0 265 L 0 325 M 10 260 L 10 320 M 20 265 L 20 325 M 20 315 L 70 290 M 20 325 L 80 295 M 30 330 L 80 305 M 10 250 L 10 260 M 20 255 L 20 265 M 20 255 L 30 250 M 10 250 L 10 240 M 20 245 L 20 235 M 0 245 L 0 235 M 0 245 L 0 255 M 0 255 L 0 265 M 10 330 L 10 340 M 10 340 L 20 335 M 20 335 L 30 330 M 10 330 L 10 320 M 20 325 L 20 315 M 0 325 L 0 315 M 0 325 L 0 335 M 10 340 L 0 335 M 80 305 L 80 365 M 90 300 L 90 360 M 100 305 L 100 365 M 100 355 L 150 330 M 100 365 L 160 335 M 110 370 L 160 345 M 100 285 L 100 295 M 100 295 L 100 305 M 90 290 L 90 280 M 100 285 L 100 275 M 80 285 L 80 275 M 90 290 L 80 285 M 90 290 L 80 295 M 80 285 L 70 290 M 90 300 L 80 305 M 90 370 L 90 380 M 90 380 L 100 375 M 100 375 L 110 370 M 90 370 L 90 360 M 100 365 L 100 355 M 80 365 L 80 355 M 80 365 L 80 375 M 90 380 L 80 375 M 170 340 L 180 335 M 180 325 L 180 335 M 170 330 L 180 325 M 180 325 L 170 320 M 160 325 L 170 320 M 170 330 L 160 335 M 160 325 L 150 330 M 170 340 L 160 345 M 170 250 L 170 260 M 170 260 L 180 255 M 180 255 L 190 250 M 170 250 L 180 245 M 170 240 L 180 235 M 170 240 L 160 235 M 170 250 L 160 245 M 170 260 L 160 255 M 160 255 L 150 250 M 170 340 L 180 335 M 180 325 L 180 335 M 170 330 L 180 325 M 180 325 L 170 320 M 160 325 L 170 320 M 170 330 L 160 335 M 160 325 L 150 330 M 170 340 L 160 345 M 240 305 L 240 365 M 250 300 L 250 360 M 260 305 L 260 365 M 260 305 L 310 330 M 260 295 L 320 325 M 270 290 L 320 315 M 260 355 L 310 330 M 260 365 L 320 335 M 270 370 L 320 345 M 250 290 L 260 295 M 250 300 L 260 305 M 260 285 L 270 290 M 240 285 L 250 280 M 250 280 L 260 275 M 250 290 L 240 285 M 240 285 L 240 295 M 240 295 L 240 305 M 250 370 L 250 380 M 250 380 L 260 375 M 260 375 L 270 370 M 250 370 L 250 360 M 260 365 L 260 355 M 240 365 L 240 355 M 240 365 L 240 375 M 250 380 L 240 375 M 330 340 L 340 335 M 340 325 L 340 335 M 330 330 L 340 325 M 340 325 L 330 320 M 330 320 L 320 315 M 330 330 L 320 335 M 320 325 L 310 330 M 330 340 L 320 345 " fill="transparent" stroke="black"/></svg>